{"title":"Little Forest: Winter/Spring [Junichi Mori, 2015] 1080p.x264.AAC","uid":14440250,"size":2057982567,"categoryP":"video","categoryS":"hd___movies","magnet":"?xt=urn:btih:07f3f5c5d4a4fb7cac15b4f2660da023ab7b28b6&amp;dn=Little+Forest%3A+Winter%2FSpring+%5BJunichi+Mori%2C+2015%5D+1080p.x264.AAC&amp;tr=udp%3A%2F%2Ftracker.leechers-paradise.org%3A6969&amp;tr=udp%3A%2F%2Fzer0day.ch%3A1337&amp;tr=udp%3A%2F%2Fopen.demonii.com%3A1337&amp;tr=udp%3A%2F%2Ftracker.coppersurfer.tk%3A6969&amp;tr=udp%3A%2F%2Fexodus.desync.com%3A6969","seeders":12,"leechers":1,"uploader":null,"files":2,"time":1461672665,"description":"Storyline\r\nIchiko lived in a big city, but goes back to her small hometown Komori, located on a mountain in the Tohoku region. She is self-sufficient. Ichiko gains energy living among nature and eating foods she makes from seasonal ingredients.\r\n\r\n\r\nGeneral\r\nComplete name                            : C:Little.Forest.Winter.Spring.2015.1080p.BRRip.x264-PSW.mp4\r\nFormat                                   : MPEG-4\r\nFormat profile                           : Base Media\r\nCodec ID                                 : isom\r\nFile size                                : 1.92 GiB\r\nDuration                                 : 2h 0mn\r\nOverall bit rate                         : 2 269 Kbps\r\nWriting application                      : ShanaEncoder\r\n\r\nVideo\r\nID                                       : 1\r\nFormat                                   : AVC\r\nFormat/Info                              : Advanced Video Codec\r\nFormat profile                           :   \r\nFormat settings, CABAC                   : Yes\r\nFormat settings, ReFrames                : 4 frames\r\nCodec ID                                 : avc1\r\nCodec ID/Info                            : Advanced Video Coding\r\nDuration                                 : 2h 0mn\r\nBit rate                                 : 2 167 Kbps\r\nWidth                                    : 1 920 pixels\r\nHeight                                   : 1 080 pixels\r\nDisplay aspect ratio                     : 16:9\r\nFrame rate mode                          : Constant\r\nFrame rate                               : 23.976 fps\r\nColor space                              : YUV\r\nChroma subsampling                       : 4:2:0\r\nBit depth                                : 8 bits\r\nScan type                                : Progressive\r\nBits/(Pixel*Frame)                       : 0.044\r\nStream size                              : 1.83 GiB (96%)\r\nWriting library                          : x264 core 146\r\nEncoding settings                        : cabac=1 / ref=4 / deblock=1:-1:-1 / analyse=0x3:0x113 / me=umh / subme=7 / psy=0 / mixed_ref=0 / me_range=32 / chroma_me=1 / trellis=2 / 8x8dct=1 / cqm=0 / deadzone=21,11 / fast_pskip=0 / chroma_qp_offset=0 / threads=3 / lookahead_threads=1 / sliced_threads=0 / nr=0 / decimate=0 / interlaced=0 / bluray_compat=0 / constrained_intra=0 / bframes=3 / b_pyramid=2 / b_adapt=2 / b_bias=0 / direct=1 / weightb=1 / open_gop=0 / weightp=2 / keyint=250 / keyint_min=25 / scenecut=40 / intra_refresh=0 / rc_lookahead=60 / rc=crf / mbtree=1 / crf=24.0 / qcomp=0.60 / qpmin=10 / qpmax=69 / qpstep=4 / ip_ratio=1.40 / aq=2:1.00\r\n\r\nAudio\r\nID                                       : 2\r\nFormat                                   : AAC\r\nFormat/Info                              : Advanced Audio Codec\r\nFormat profile                           : LC\r\nCodec ID                                 : 40\r\nDuration                                 : 2h 0mn\r\nBit rate mode                            : Constant\r\nBit rate                                 : 96.0 Kbps\r\nChannel(s)                               : 2 channels\r\nChannel positions                        : Front: L R\r\nSampling rate                            : 48.0 KHz\r\nCompression mode                         : Lossy\r\nDelay relative to video                  : 83ms\r\nStream size                              : 83.0 MiB (4%)\r\nLanguage                                 : Japanese\r\n\r\n\r\nSynchronized English subtitles are available at opensubtitles(dot)org","torrent":{"xt":"urn:btih:07f3f5c5d4a4fb7cac15b4f2660da023ab7b28b6","amp;dn":"Little+Forest%3A+Winter%2FSpring+%5BJunichi+Mori%2C+2015%5D+1080p.x264.AAC","amp;tr":["udp%3A%2F%2Ftracker.leechers-paradise.org%3A6969","udp%3A%2F%2Fzer0day.ch%3A1337","udp%3A%2F%2Fopen.demonii.com%3A1337","udp%3A%2F%2Ftracker.coppersurfer.tk%3A6969","udp%3A%2F%2Fexodus.desync.com%3A6969"],"infoHash":"07f3f5c5d4a4fb7cac15b4f2660da023ab7b28b6","infoHashBuffer":{"type":"Buffer","data":[7,243,245,197,212,164,251,124,172,21,180,242,102,13,160,35,171,123,40,182]},"announce":[],"urlList":[]}}